<svg width="214" height="48" viewBox="0 0 214 48" fill="none" xmlns="http://www.w3.org/2000/svg">
<path d="M85.7998 5.20312C86.6577 5.23697 87.5217 5.23697 88.3826 5.22774C88.7608 6.54466 89.0867 7.87389 89.5048 9.17851C89.8984 7.86774 90.2489 6.54466 90.624 5.23082C91.282 5.23082 91.94 5.23389 92.598 5.23082C92.9731 6.58774 93.339 7.94774 93.708 9.30774C94.0923 7.94774 94.4644 6.58774 94.8518 5.23082C95.6051 5.23389 96.3584 5.23082 97.1117 5.2062C95.9556 7.37851 95.8295 9.96005 94.818 12.1877C94.1538 12.6185 93.2252 12.3262 92.4596 12.4031C92.1552 11.1754 91.8539 9.94774 91.5495 8.72313C91.2298 9.94159 90.9131 11.157 90.6025 12.3785C89.8123 12.2862 88.8284 12.6585 88.1796 12.0985C87.6323 10.8031 87.3925 9.40313 86.9651 8.06466C86.63 7.09236 86.5962 5.94466 85.7998 5.20312Z" fill="#A0A747"/>
<path d="M83.0297 18.2578C86.3196 15.5655 90.861 14.6332 94.9934 15.4763C98.2802 16.1593 101.223 18.1932 103.126 20.9501C101.281 22.7224 99.4579 24.5224 97.5884 26.2701C96.7398 25.107 95.802 23.9101 94.4368 23.3378C92.2753 22.4516 89.5757 23.0424 88.0507 24.8332C86.541 26.5501 86.252 28.9809 86.4334 31.1778C86.6609 33.0609 87.5126 35.0178 89.1483 36.0793C91.1408 37.2793 93.6743 37.0639 95.7436 36.1686C95.7098 34.3993 95.7897 32.627 95.7129 30.8578C95.7006 30.107 94.8581 29.8947 94.4122 29.4455C97.2994 29.3962 100.19 29.427 103.08 29.4301C103.08 31.8486 103.077 34.2701 103.08 36.6916C103.101 37.907 103.114 39.1962 103.741 40.2824C100.891 43.1716 96.8443 44.5624 92.8472 44.7347C89.0438 45.0086 85.0743 43.7778 82.3071 41.1009C79.3031 38.2362 77.8457 34.0055 77.9103 29.9039C77.8734 25.5501 79.5891 21.0393 83.0297 18.2578Z" fill="#A0A747"/>
<path d="M42.7776 23.1348C45.634 21.6425 49.4405 23.0671 50.655 26.0486C49.6312 26.7102 48.5919 27.3471 47.5649 28.0025C47.116 26.9717 46.1168 26.0671 44.9176 26.3317C44.0874 26.3533 43.6109 27.4917 44.3088 28.0179C45.8124 29.0302 47.7587 29.1133 49.2407 30.184C51.7681 31.8548 51.5436 36.1717 48.9885 37.7102C47.362 38.7133 45.3081 38.7779 43.494 38.344C41.7015 37.9102 40.1979 36.5163 39.666 34.744C40.7206 34.1317 41.7476 33.4733 42.7807 32.8271C43.1866 33.7471 43.8968 34.6025 44.933 34.7902C45.717 34.9009 46.7778 34.9533 47.2667 34.1902C47.5096 33.5225 46.9715 32.9379 46.372 32.7533C44.727 32.0979 42.8422 31.8056 41.5385 30.5071C39.417 28.4486 40.0811 24.384 42.7776 23.1348Z" fill="#A0A747"/>
<path d="M115.689 28.6429C116.31 25.486 119.068 22.806 122.331 22.5937C125.089 22.2768 127.859 23.7414 129.298 26.0891C128.262 26.7291 127.219 27.3537 126.189 28.003C124.987 26.3137 122.453 25.886 120.784 27.1168C118.625 28.6983 118.589 32.3937 120.695 34.0337C122.472 35.366 125.494 35.0737 126.527 32.9414C124.833 33.0553 123.228 31.9106 122.964 30.1999C125.408 30.1845 127.856 30.1937 130.303 30.1937C130.386 32.3599 129.94 34.6676 128.443 36.3168C126.174 38.9014 122.032 39.2029 119.164 37.4737C116.196 35.726 114.933 31.9168 115.689 28.6429Z" fill="#A0A747"/>
<path d="M0.208984 22.8859C1.52189 22.8828 2.83786 22.8828 4.15077 22.8859C4.8887 26.092 5.63278 29.2951 6.37686 32.4982C7.247 29.2982 8.0864 26.089 8.95039 22.8859C9.91893 22.8797 10.8875 22.8859 11.856 22.889C12.7015 26.092 13.5502 29.292 14.4049 32.492C15.1613 29.292 15.8931 26.0859 16.6433 22.8828C17.9562 22.8828 19.2691 22.8828 20.5851 22.8859C19.2445 28.0059 17.9163 33.129 16.5788 38.249C15.2843 38.249 13.9868 38.249 12.6892 38.249C11.9267 35.3813 11.1796 32.5136 10.4047 29.652C9.63913 32.5136 8.87967 35.3782 8.12637 38.2428C6.82884 38.2551 5.53131 38.249 4.23686 38.249C2.88706 33.129 1.54956 28.0059 0.208984 22.8859Z" fill="#A0A747"/>
<path d="M25.0371 22.8859C28.2656 22.8797 31.4971 22.8859 34.7255 22.8828C34.7255 24.1197 34.7255 25.3567 34.7255 26.5967C32.727 26.5967 30.7253 26.5936 28.7268 26.5967C28.7298 27.3536 28.7298 28.1074 28.7298 28.8644C30.2856 28.8644 31.8414 28.8644 33.3973 28.8644C33.4003 29.9813 33.4003 31.0951 33.3973 32.212C31.8414 32.212 30.2856 32.212 28.7298 32.212C28.7329 32.9813 28.7268 33.7505 28.7175 34.5228C30.796 34.5567 32.8776 34.5259 34.9592 34.5413C34.9561 35.7751 34.9561 37.012 34.9561 38.249C31.6508 38.249 28.3455 38.252 25.0402 38.2459C25.0371 33.1259 25.0402 28.0059 25.0371 22.8859Z" fill="#A0A747"/>
<path d="M55.3664 22.9238C59.0345 22.9238 62.7057 22.9238 66.3738 22.9238C66.3769 24.1331 66.3769 25.3454 66.3738 26.5577C65.1839 26.5577 63.9909 26.5608 62.801 26.5608C62.801 30.4623 62.801 34.3669 62.801 38.2684C61.5188 38.2684 60.2398 38.2684 58.9576 38.2684C58.9576 34.3669 58.9576 30.4623 58.9576 26.5577C57.7616 26.5608 56.5624 26.5577 55.3633 26.5577C55.3633 25.3454 55.3633 24.1331 55.3664 22.9238Z" fill="#A0A747"/>
<path d="M137.895 22.8897C139.644 22.8805 141.394 22.8805 143.146 22.8897C144.717 28.0128 146.304 33.1267 147.881 38.2497C146.556 38.2497 145.228 38.2497 143.903 38.2497C143.7 37.5174 143.488 36.7913 143.285 36.059C141.449 36.059 139.613 36.059 137.775 36.059C137.572 36.7913 137.363 37.5174 137.16 38.2497C135.825 38.2497 134.491 38.2528 133.16 38.2497C134.734 33.1267 136.324 28.0097 137.895 22.8897ZM138.688 32.7882C139.918 32.7882 141.145 32.7882 142.375 32.7882C141.753 30.7667 141.145 28.742 140.521 26.7236C139.902 28.7451 139.297 30.7667 138.688 32.7882Z" fill="#A0A747"/>
<path d="M152.275 22.904C154.618 22.9194 156.961 22.8702 159.304 22.9255C161.822 23.0117 163.965 25.2794 164.033 27.7809C164.192 29.6917 163.206 31.584 161.591 32.5994C162.563 34.4855 163.553 36.3625 164.528 38.2486C163.212 38.2517 161.899 38.2486 160.586 38.2486C159.75 36.6178 158.916 34.9902 158.077 33.3625C157.339 33.3655 156.604 33.3655 155.869 33.3655C155.869 34.9932 155.869 36.6209 155.869 38.2486C154.67 38.2486 153.471 38.2486 152.275 38.2486C152.275 33.1317 152.275 28.0179 152.275 22.904ZM155.869 26.5779C155.866 27.7102 155.866 28.8425 155.869 29.9779C156.992 29.9471 158.126 30.0702 159.242 29.8948C160.733 29.5194 160.737 27.0302 159.251 26.6425C158.132 26.4917 156.995 26.6086 155.869 26.5779Z" fill="#A0A747"/>
<path d="M169.263 22.9007C171.366 22.9192 173.466 22.8761 175.569 22.9161C177.81 23.0115 179.889 24.39 180.993 26.3223C182.908 29.6146 182.343 34.3315 179.311 36.7715C178.17 37.7069 176.707 38.2177 175.237 38.2361C173.244 38.27 171.252 38.2392 169.263 38.2484C169.263 33.1315 169.263 28.0177 169.263 22.9007ZM173.106 26.6946C173.106 29.2823 173.103 31.873 173.109 34.4607C174.419 34.4207 175.895 34.673 177.033 33.8546C178.936 32.4053 179.013 29.1684 177.337 27.5192C176.208 26.43 174.527 26.7253 173.106 26.6946Z" fill="#A0A747"/>
<path d="M186.865 22.8828C190.094 22.8828 193.322 22.8828 196.551 22.8828C196.551 24.1197 196.551 25.3567 196.551 26.5936C194.546 26.5967 192.541 26.5967 190.536 26.5967C190.536 27.3505 190.533 28.1074 190.536 28.8613C192.098 28.8674 193.66 28.8644 195.225 28.8674C195.225 29.9874 195.225 31.1074 195.225 32.2305C193.66 32.2305 192.098 32.2274 190.536 32.2336C190.533 32.9997 190.536 33.769 190.536 34.5382C192.618 34.5382 194.7 34.5382 196.781 34.5382C196.781 35.7751 196.781 37.012 196.781 38.249C193.476 38.249 190.171 38.249 186.865 38.249C186.865 33.1259 186.865 28.0059 186.865 22.8828Z" fill="#A0A747"/>
<path d="M202.067 22.9231C203.032 22.9201 203.998 22.9231 204.969 22.9262C206.66 25.477 208.358 28.0216 210.058 30.5662C210.061 28.0185 210.058 25.4708 210.061 22.9231C211.3 22.9231 212.542 22.9231 213.788 22.9231C213.791 28.037 213.788 33.1539 213.788 38.2678C212.825 38.2678 211.866 38.2678 210.907 38.2708C209.194 35.7139 207.509 33.1385 205.796 30.5847C205.79 33.1508 205.796 35.7201 205.793 38.2862C204.551 38.2893 203.306 38.2893 202.067 38.2862C202.067 33.1662 202.064 28.0431 202.067 22.9231Z" fill="#A0A747"/>
</svg>
